<?xml version="1.0" encoding="UTF-8" standalone="no"?>
<!DOCTYPE svg PUBLIC "-//W3C//DTD SVG 1.1//EN" "http://www.w3.org/Graphics/SVG/1.1/DTD/svg11.dtd">
<svg width="100%" height="100%" viewBox="0 0 500 500" version="1.1" xmlns="http://www.w3.org/2000/svg" xmlns:xlink="http://www.w3.org/1999/xlink" xml:space="preserve" xmlns:serif="http://www.serif.com/" style="fill-rule:evenodd;clip-rule:evenodd;stroke-linejoin:round;stroke-miterlimit:2;">
    <g transform="matrix(1.27064,0,0,1.27064,107.409,20.5041)">
        <path d="M65.35,94.32L79.63,123.94L144.08,123.94L158.36,94.32L65.35,94.32Z" style="fill:rgb(128,130,133);fill-rule:nonzero;"/>
    </g>
    <g transform="matrix(1.27064,0,0,1.27064,11.0823,-58.6565)">
        <path d="M187.66,62.3C177.268,62.294 166.925,63.735 156.93,66.58L156.93,148.58L218.4,148.58L218.4,66.58C208.401,63.736 198.055,62.295 187.66,62.3Z" style="fill:rgb(167,169,172);fill-rule:nonzero;"/>
    </g>
    <g transform="matrix(1.27064,0,0,1.27064,11.0823,-58.6565)">
        <path d="M228.77,186.24L300.25,186.24L300.25,174.16L299.52,174.16C299.532,127.412 270.25,85.364 226.4,69.16L226.4,148.59L246.91,148.59L228.77,186.24Z" style="fill:rgb(69,73,86);fill-rule:nonzero;"/>
    </g>
    <g transform="matrix(1.27064,0,0,1.27064,11.0823,-58.6565)">
        <path d="M146.56,186.24L128.42,148.62L148.93,148.62L148.93,69.19C105.078,85.391 75.796,127.441 75.81,174.19L75.81,186.27L146.56,186.24Z" style="fill:rgb(69,73,86);fill-rule:nonzero;"/>
    </g>
    <g transform="matrix(1.27064,0,0,1.27064,107.409,20.5041)">
        <path d="M0,131.94L0,361.23L224.44,361.23L224.44,131.94" style="fill:rgb(69,73,86);fill-rule:nonzero;"/>
    </g>
</svg>
