<?xml version="1.0" encoding="UTF-8" standalone="no"?>
<!DOCTYPE svg PUBLIC "-//W3C//DTD SVG 1.1//EN" "http://www.w3.org/Graphics/SVG/1.1/DTD/svg11.dtd">
<svg width="100%" height="100%" viewBox="0 0 847 362" version="1.1" xmlns="http://www.w3.org/2000/svg" xmlns:xlink="http://www.w3.org/1999/xlink" xml:space="preserve" xmlns:serif="http://www.serif.com/" style="fill-rule:evenodd;clip-rule:evenodd;stroke-linejoin:round;stroke-miterlimit:2;">
    <path d="M65.35,94.32L79.63,123.94L144.08,123.94L158.36,94.32L65.35,94.32Z" style="fill:rgb(128,130,133);fill-rule:nonzero;"/>
    <g transform="matrix(1,0,0,1,-75.81,-62.3)">
        <path d="M187.66,62.3C177.268,62.294 166.925,63.735 156.93,66.58L156.93,148.58L218.4,148.58L218.4,66.58C208.401,63.736 198.055,62.295 187.66,62.3Z" style="fill:rgb(167,169,172);fill-rule:nonzero;"/>
    </g>
    <g>
        <g transform="matrix(1,0,0,1,-75.81,-62.3)">
            <path d="M146.56,186.24L128.42,148.62L148.93,148.62L148.93,69.19C105.078,85.391 75.796,127.441 75.81,174.19L75.81,186.27L146.56,186.24Z" style="fill:rgb(69,73,86);fill-rule:nonzero;"/>
        </g>
        <g transform="matrix(-1,0,0,1,299.52,-62.33)">
            <path d="M146.56,186.24L128.42,148.62L148.93,148.62L148.93,69.19C105.078,85.391 75.796,127.441 75.81,174.19L75.81,186.27L146.56,186.24Z" style="fill:rgb(69,73,86);fill-rule:nonzero;"/>
        </g>
        <path d="M0,131.94L0,361.23L224.44,361.23L224.44,131.94" style="fill:rgb(69,73,86);fill-rule:nonzero;"/>
        <g transform="matrix(1,0,0,1,-75.81,-62.3)">
            <path d="M391.73,223.66C390.859,222.88 389.918,222.18 388.92,221.57C387.355,220.577 385.709,219.717 384,219C381.952,218.122 379.839,217.403 377.68,216.85C375.416,216.267 373.088,215.972 370.75,215.97C366.57,215.97 363.453,216.74 361.4,218.28C359.362,219.797 358.206,222.232 358.32,224.77C358.266,226.192 358.669,227.594 359.47,228.77C360.368,229.942 361.516,230.898 362.83,231.57C364.597,232.498 366.457,233.235 368.38,233.77C370.62,234.437 373.207,235.133 376.14,235.86C379.953,236.893 383.417,237.993 386.53,239.16C389.39,240.191 392.064,241.677 394.45,243.56C396.573,245.266 398.282,247.43 399.45,249.89C400.703,252.745 401.304,255.844 401.21,258.96C401.316,262.677 400.501,266.363 398.84,269.69C397.348,272.566 395.179,275.038 392.52,276.89C389.719,278.793 386.584,280.15 383.28,280.89C379.675,281.74 375.983,282.162 372.28,282.15C366.387,282.146 360.528,281.256 354.9,279.51C349.399,277.858 344.2,275.332 339.5,272.03L346.19,259C347.286,259.986 348.482,260.854 349.76,261.59C351.728,262.78 353.769,263.845 355.87,264.78C358.39,265.903 361.003,266.803 363.68,267.47C366.555,268.208 369.512,268.578 372.48,268.57C380.84,268.57 385.02,265.903 385.02,260.57C385.074,258.981 384.568,257.423 383.59,256.17C382.467,254.867 381.08,253.817 379.52,253.09C377.467,252.102 375.332,251.292 373.14,250.67C370.647,249.937 367.86,249.167 364.78,248.36C361.442,247.482 358.173,246.359 355,245C352.505,243.95 350.187,242.52 348.13,240.76C346.328,239.184 344.914,237.213 344,235C343.036,232.512 342.57,229.858 342.63,227.19C342.561,223.55 343.313,219.94 344.83,216.63C346.241,213.626 348.329,210.99 350.93,208.93C353.641,206.824 356.72,205.241 360.01,204.26C363.612,203.174 367.358,202.635 371.12,202.66C376.294,202.607 381.436,203.484 386.3,205.25C390.562,206.793 394.625,208.841 398.4,211.35L391.73,223.66Z" style="fill:rgb(69,73,86);fill-rule:nonzero;"/>
            <path d="M444.31,278.33C441.929,279.367 439.488,280.258 437,281C434.059,281.887 431.002,282.332 427.93,282.32C425.977,282.337 424.031,282.078 422.15,281.55C420.416,281.072 418.803,280.23 417.42,279.08C416.018,277.88 414.91,276.375 414.18,274.68C413.325,272.595 412.923,270.352 413,268.1L413,235L405.52,235L405.52,223.66L413,223.66L413,205L427.7,205L427.7,223.7L439.91,223.7L439.91,235L427.7,235L427.7,263.16C427.7,265.22 428.25,266.67 429.35,267.51C430.501,268.372 431.913,268.817 433.35,268.77C434.886,268.774 436.412,268.513 437.86,268C439.33,267.49 440.5,267.05 441.38,266.68L444.31,278.33Z" style="fill:rgb(69,73,86);fill-rule:nonzero;"/>
            <path d="M478.52,282.4C474.228,282.445 469.971,281.629 466,280C458.821,277.071 453.149,271.319 450.32,264.1C448.889,260.495 448.163,256.649 448.18,252.77C448.152,248.807 448.861,244.874 450.27,241.17C451.621,237.605 453.679,234.349 456.32,231.6C459.051,228.789 462.324,226.561 465.94,225.05C469.968,223.389 474.293,222.566 478.65,222.63C482.969,222.559 487.256,223.383 491.24,225.05C494.794,226.562 498.01,228.768 500.7,231.54C503.307,234.253 505.329,237.473 506.64,241C507.984,244.587 508.661,248.39 508.64,252.22C508.64,253.22 508.64,254.09 508.58,254.97C508.563,255.71 508.473,256.447 508.31,257.17L463.78,257.17C463.951,259.271 464.511,261.323 465.43,263.22C467.099,266.627 470.014,269.267 473.57,270.59C475.328,271.253 477.191,271.592 479.07,271.59C481.974,271.597 484.832,270.86 487.37,269.45C489.762,268.249 491.654,266.24 492.71,263.78L505.36,267.3C503.108,271.836 499.566,275.608 495.18,278.14C490.129,281.075 484.36,282.55 478.52,282.4ZM493.52,247.64C493.326,243.689 491.608,239.963 488.73,237.25C482.995,231.957 474.039,231.979 468.33,237.3C466.98,238.592 465.878,240.121 465.08,241.81C464.219,243.641 463.717,245.62 463.6,247.64L493.52,247.64Z" style="fill:rgb(69,73,86);fill-rule:nonzero;"/>
            <path d="M552,236.42C547.862,236.419 543.772,237.298 540,239C536.657,240.474 533.96,243.112 532.41,246.42L532.41,281.3L517.68,281.3L517.68,223.66L531.21,223.66L531.21,236C533.016,232.252 535.669,228.975 538.96,226.43C541.806,224.129 545.341,222.844 549,222.78C549.8,222.78 550.41,222.78 550.81,222.84C551.21,222.9 551.6,222.93 551.97,223L552,236.42Z" style="fill:rgb(69,73,86);fill-rule:nonzero;"/>
            <path d="M613.82,281.3L599.08,281.3L599.08,249C599.08,244.38 598.273,241.007 596.66,238.88C595.084,236.781 592.572,235.587 589.95,235.69C588.406,235.708 586.878,236.006 585.44,236.57C583.875,237.176 582.409,238.012 581.09,239.05C579.702,240.146 578.464,241.42 577.41,242.84C576.317,244.293 575.497,245.933 574.99,247.68L574.99,281.3L560.25,281.3L560.25,223.66L573.56,223.66L573.56,234.33C575.729,230.624 578.944,227.639 582.8,225.75C587.036,223.651 591.713,222.595 596.44,222.67C599.498,222.551 602.534,223.241 605.24,224.67C607.42,225.905 609.24,227.687 610.52,229.84C611.802,232.088 612.676,234.547 613.1,237.1C613.58,239.824 613.821,242.584 613.82,245.35L613.82,281.3Z" style="fill:rgb(69,73,86);fill-rule:nonzero;"/>
            <path d="M697.2,223.66L711.28,223.66L687.19,281.3L675.09,281.3L665.19,256L655.4,281.3L643.3,281.3L619.21,223.66L633.21,223.66L650.37,267.44L657.37,248.74L647.25,223.74L659.13,223.74L665.18,241.45L671.34,223.74L683.22,223.74L673.22,248.74L680.15,267.44L697.2,223.66Z" style="fill:rgb(69,73,86);fill-rule:nonzero;"/>
            <path d="M732.62,282.4C729.95,282.411 727.3,281.936 724.8,281C722.48,280.141 720.353,278.833 718.54,277.15C716.789,275.52 715.384,273.555 714.41,271.37C713.4,269.084 712.892,266.609 712.92,264.11C712.901,261.489 713.526,258.903 714.74,256.58C715.961,254.26 717.691,252.247 719.8,250.69C722.147,248.991 724.768,247.709 727.55,246.9C730.766,245.95 734.106,245.485 737.46,245.52C739.985,245.517 742.504,245.738 744.99,246.18C747.235,246.562 749.432,247.189 751.54,248.05L751.54,244.75C751.54,240.937 750.457,238.003 748.29,235.95C746.123,233.897 742.917,232.87 738.67,232.87C735.595,232.874 732.546,233.433 729.67,234.52C726.485,235.763 723.463,237.388 720.67,239.36L716.12,230C723.195,225.185 731.562,222.616 740.12,222.63C748.407,222.63 754.843,224.667 759.43,228.74C764.017,232.813 766.307,238.697 766.3,246.39L766.3,264.32C766.193,265.491 766.509,266.662 767.19,267.62C768.025,268.381 769.131,268.777 770.26,268.72L770.26,281.3C768.973,281.577 767.671,281.781 766.36,281.91C765.15,282.02 764.11,282.07 763.22,282.07C760.939,282.159 758.693,281.483 756.84,280.15C755.361,278.903 754.384,277.162 754.09,275.25L753.76,272.06C751.311,275.344 748.103,277.986 744.41,279.76C740.732,281.526 736.7,282.429 732.62,282.4ZM736.8,271.62C739.225,271.632 741.631,271.184 743.89,270.3C745.898,269.579 747.696,268.369 749.12,266.78C750.552,265.858 751.454,264.3 751.54,262.6L751.54,256C749.677,255.313 747.761,254.781 745.81,254.41C743.858,254.017 741.872,253.812 739.88,253.8C736.566,253.659 733.29,254.565 730.52,256.39C728.271,257.802 726.898,260.275 726.89,262.93C726.847,265.331 727.905,267.625 729.76,269.15C731.718,270.819 734.229,271.7 736.8,271.62Z" style="fill:rgb(69,73,86);fill-rule:nonzero;"/>
            <path d="M814.67,236.42C810.532,236.423 806.441,237.306 802.67,239.01C799.327,240.484 796.63,243.122 795.08,246.43L795.08,281.3L780.35,281.3L780.35,223.66L793.88,223.66L793.88,236C795.69,232.252 798.346,228.975 801.64,226.43C804.493,224.13 808.036,222.851 811.7,222.8C812.51,222.8 813.11,222.8 813.52,222.86C813.93,222.92 814.3,222.95 814.67,223.02L814.67,236.42Z" style="fill:rgb(69,73,86);fill-rule:nonzero;"/>
            <path d="M857.57,278.33C855.188,279.356 852.747,280.237 850.26,280.97C847.315,281.856 844.255,282.301 841.18,282.29C839.23,282.307 837.287,282.048 835.41,281.52C833.674,281.046 832.061,280.204 830.68,279.05C829.275,277.851 828.163,276.345 827.43,274.65C826.569,272.577 826.156,270.344 826.22,268.1L826.22,235L818.74,235L818.74,223.66L826.22,223.66L826.22,205L841,205L841,223.7L853.21,223.7L853.21,235L841,235L841,263.16C841,265.22 841.55,266.67 842.65,267.51C843.801,268.372 845.213,268.817 846.65,268.77C848.186,268.774 849.712,268.513 851.16,268C852.63,267.49 853.8,267.05 854.68,266.68L857.57,278.33Z" style="fill:rgb(69,73,86);fill-rule:nonzero;"/>
            <path d="M891.78,282.4C887.482,282.448 883.217,281.632 879.24,280C872.06,277.074 866.391,271.321 863.57,264.1C862.136,260.496 861.406,256.649 861.42,252.77C861.396,248.808 862.105,244.875 863.51,241.17C864.846,237.609 866.887,234.354 869.51,231.6C872.244,228.788 875.52,226.56 879.14,225.05C883.165,223.389 887.486,222.566 891.84,222.63C896.162,222.56 900.452,223.384 904.44,225.05C907.991,226.567 911.207,228.773 913.9,231.54C916.5,234.259 918.521,237.477 919.84,241C921.179,244.588 921.857,248.39 921.84,252.22L921.84,254.97C921.82,255.711 921.727,256.448 921.56,257.17L877,257.17C877.171,259.271 877.731,261.323 878.65,263.22C879.489,264.927 880.646,266.458 882.06,267.73C883.442,268.973 885.047,269.943 886.79,270.59C888.548,271.253 890.411,271.592 892.29,271.59C895.197,271.599 898.059,270.862 900.6,269.45C902.989,268.248 904.878,266.239 905.93,263.78L918.58,267.3C916.329,271.834 912.791,275.605 908.41,278.14C903.366,281.067 897.61,282.542 891.78,282.4ZM906.78,247.64C906.586,243.691 904.872,239.967 902,237.25C896.264,231.951 887.3,231.973 881.59,237.3C880.24,238.59 879.141,240.119 878.35,241.81C877.486,243.64 876.98,245.619 876.86,247.64L906.78,247.64Z" style="fill:rgb(69,73,86);fill-rule:nonzero;"/>
            <path d="M391.73,355.66C390.859,354.88 389.918,354.18 388.92,353.57C387.355,352.577 385.709,351.717 384,351C381.952,350.122 379.839,349.403 377.68,348.85C375.416,348.267 373.088,347.972 370.75,347.97C366.57,347.97 363.453,348.74 361.4,350.28C359.362,351.797 358.206,354.232 358.32,356.77C358.266,358.192 358.669,359.594 359.47,360.77C360.368,361.942 361.516,362.898 362.83,363.57C364.597,364.498 366.457,365.235 368.38,365.77C370.62,366.437 373.207,367.133 376.14,367.86C379.953,368.887 383.417,369.987 386.53,371.16C389.39,372.191 392.064,373.677 394.45,375.56C396.573,377.266 398.282,379.43 399.45,381.89C400.703,384.745 401.304,387.844 401.21,390.96C401.316,394.677 400.501,398.363 398.84,401.69C397.348,404.566 395.179,407.038 392.52,408.89C389.719,410.793 386.584,412.15 383.28,412.89C379.675,413.74 375.983,414.162 372.28,414.15C366.387,414.146 360.528,413.256 354.9,411.51C349.399,409.858 344.2,407.332 339.5,404.03L346.19,391C347.286,391.986 348.482,392.854 349.76,393.59C351.728,394.78 353.769,395.845 355.87,396.78C358.39,397.903 361.003,398.803 363.68,399.47C366.555,400.208 369.512,400.578 372.48,400.57C380.84,400.57 385.02,397.903 385.02,392.57C385.074,390.981 384.568,389.423 383.59,388.17C382.467,386.867 381.08,385.817 379.52,385.09C377.467,384.102 375.332,383.292 373.14,382.67C370.647,381.937 367.86,381.167 364.78,380.36C361.442,379.482 358.173,378.359 355,377C352.505,375.95 350.187,374.52 348.13,372.76C346.328,371.184 344.914,369.213 344,367C343.036,364.512 342.57,361.858 342.63,359.19C342.561,355.55 343.313,351.94 344.83,348.63C346.241,345.626 348.329,342.99 350.93,340.93C353.641,338.824 356.72,337.241 360.01,336.26C363.612,335.174 367.358,334.635 371.12,334.66C376.294,334.607 381.436,335.484 386.3,337.25C390.562,338.793 394.625,340.841 398.4,343.35L391.73,355.66Z" style="fill:rgb(69,73,86);fill-rule:nonzero;"/>
            <path d="M444.31,410.33C441.929,411.367 439.488,412.258 437,413C434.059,413.887 431.002,414.332 427.93,414.32C425.977,414.337 424.031,414.078 422.15,413.55C420.416,413.072 418.803,412.23 417.42,411.08C416.018,409.88 414.91,408.375 414.18,406.68C413.325,404.595 412.923,402.352 413,400.1L413,367L405.52,367L405.52,355.66L413,355.66L413,337L427.7,337L427.7,355.7L439.91,355.7L439.91,367L427.7,367L427.7,395.16C427.7,397.22 428.25,398.67 429.35,399.51C430.501,400.372 431.913,400.817 433.35,400.77C434.886,400.774 436.412,400.513 437.86,400C439.33,399.49 440.5,399.05 441.38,398.68L444.31,410.33Z" style="fill:rgb(69,73,86);fill-rule:nonzero;"/>
            <rect x="451.35" y="397.46" width="12.1" height="15.84" style="fill:rgb(69,73,86);fill-rule:nonzero;"/>
            <path d="M536.6,413.85C531.385,413.918 526.225,412.771 521.53,410.5C517.075,408.33 513.092,405.302 509.81,401.59C506.533,397.858 503.979,393.547 502.28,388.88C500.535,384.2 499.641,379.245 499.64,374.25C499.628,364.052 503.411,354.205 510.25,346.64C513.583,342.98 517.603,340.011 522.08,337.9C526.722,335.714 531.799,334.603 536.93,334.65C542.158,334.589 547.325,335.779 552,338.12C556.442,340.351 560.404,343.433 563.66,347.19C570.145,354.803 573.731,364.47 573.78,374.47C573.808,379.571 572.865,384.632 571,389.38C569.202,393.997 566.575,398.247 563.25,401.92C559.935,405.56 555.935,408.513 551.48,410.61C546.827,412.795 541.74,413.903 536.6,413.85ZM514.93,374.25C514.919,377.57 515.419,380.872 516.41,384.04C517.33,387.06 518.783,389.892 520.7,392.4C522.553,394.81 524.899,396.798 527.58,398.23C530.425,399.731 533.604,400.488 536.82,400.43C540.059,400.498 543.261,399.723 546.11,398.18C548.773,396.692 551.083,394.645 552.88,392.18C554.738,389.633 556.151,386.789 557.06,383.77C558.007,380.685 558.489,377.477 558.49,374.25C558.494,370.926 557.974,367.622 556.95,364.46C555.991,361.444 554.519,358.616 552.6,356.1C550.767,353.71 548.441,351.742 545.78,350.33C542.983,348.869 539.865,348.129 536.71,348.18C533.467,348.115 530.262,348.894 527.41,350.44C524.751,351.928 522.429,353.95 520.59,356.38C518.692,358.892 517.259,361.723 516.36,364.74C515.409,367.82 514.927,371.026 514.93,374.25Z" style="fill:rgb(69,73,86);fill-rule:nonzero;"/>
            <path d="M618.66,410.33C616.276,411.357 613.831,412.239 611.34,412.97C608.399,413.857 605.342,414.302 602.27,414.29C600.317,414.307 598.371,414.048 596.49,413.52C594.755,413.044 593.142,412.202 591.76,411.05C590.356,409.852 589.247,408.346 588.52,406.65C587.659,404.577 587.246,402.344 587.31,400.1L587.31,367L579.83,367L579.83,355.66L587.31,355.66L587.31,337L602.05,337L602.05,355.7L614.26,355.7L614.26,367L602.05,367L602.05,395.16C602.05,397.22 602.6,398.67 603.7,399.51C604.851,400.372 606.263,400.817 607.7,400.77C609.236,400.774 610.762,400.513 612.21,400C613.67,399.49 614.85,399.05 615.73,398.68L618.66,410.33Z" style="fill:rgb(69,73,86);fill-rule:nonzero;"/>
            <path d="M660.35,410.33C657.956,411.368 655.502,412.26 653,413C650.059,413.887 647.002,414.332 643.93,414.32C641.977,414.337 640.031,414.078 638.15,413.55C636.415,413.074 634.802,412.232 633.42,411.08C632.016,409.882 630.907,408.376 630.18,406.68C629.325,404.595 628.923,402.352 629,400.1L629,367L621.52,367L621.52,355.66L629,355.66L629,337L643.74,337L643.74,355.7L656,355.7L656,367L643.74,367L643.74,395.16C643.74,397.22 644.29,398.67 645.39,399.51C646.541,400.372 647.953,400.817 649.39,400.77C650.926,400.774 652.452,400.513 653.9,400C655.36,399.49 656.54,399.05 657.42,398.68L660.35,410.33Z" style="fill:rgb(69,73,86);fill-rule:nonzero;"/>
            <path d="M667.71,347.63L667.71,333L682.46,333L682.46,347.63L667.71,347.63ZM667.71,413.3L667.71,355.66L682.46,355.66L682.46,413.3L667.71,413.3Z" style="fill:rgb(69,73,86);fill-rule:nonzero;"/>
            <path d="M695.43,333L710.17,333L710.17,394.16C710.17,398.64 712.187,400.877 716.22,400.87C717.172,400.852 718.118,400.704 719.03,400.43C720.047,400.149 721.048,399.815 722.03,399.43L724.03,411.2C721.825,412.231 719.496,412.97 717.1,413.4C714.747,413.887 712.353,414.145 709.95,414.17C705.33,414.17 701.757,412.943 699.23,410.49C696.703,408.037 695.437,404.54 695.43,400L695.43,333Z" style="fill:rgb(69,73,86);fill-rule:nonzero;"/>
            <path d="M730.41,347.63L730.41,333L745.15,333L745.15,347.63L730.41,347.63ZM730.41,413.3L730.41,355.66L745.15,355.66L745.15,413.3L730.41,413.3Z" style="fill:rgb(69,73,86);fill-rule:nonzero;"/>
            <path d="M785.08,414.4C780.781,414.453 776.516,413.636 772.54,412C765.36,409.074 759.691,403.321 756.87,396.1C755.436,392.496 754.706,388.649 754.72,384.77C754.696,380.808 755.405,376.875 756.81,373.17C758.161,369.605 760.219,366.349 762.86,363.6C765.594,360.788 768.87,358.56 772.49,357.05C776.515,355.389 780.836,354.566 785.19,354.63C789.512,354.56 793.802,355.384 797.79,357.05C801.341,358.567 804.557,360.773 807.25,363.54C809.85,366.259 811.871,369.477 813.19,373C814.529,376.588 815.207,380.39 815.19,384.22C815.19,385.22 815.19,386.09 815.14,386.97C815.12,387.711 815.027,388.448 814.86,389.17L770.34,389.17C770.511,391.271 771.071,393.323 771.99,395.22C772.829,396.927 773.986,398.458 775.4,399.73C776.782,400.973 778.387,401.943 780.13,402.59C781.888,403.253 783.751,403.592 785.63,403.59C788.537,403.599 791.399,402.862 793.94,401.45C796.329,400.248 798.218,398.239 799.27,395.78L811.92,399.3C809.669,403.834 806.131,407.605 801.75,410.14C796.695,413.074 790.923,414.549 785.08,414.4ZM800.08,379.64C799.886,375.691 798.172,371.967 795.3,369.25C789.564,363.951 780.6,363.973 774.89,369.3C773.54,370.59 772.441,372.119 771.65,373.81C770.786,375.64 770.28,377.619 770.16,379.64L800.08,379.64Z" style="fill:rgb(69,73,86);fill-rule:nonzero;"/>
            <path d="M877.81,413.3L863.07,413.3L863.07,381C863.07,376.38 862.263,373.007 860.65,370.88C859.074,368.781 856.562,367.587 853.94,367.69C852.396,367.708 850.868,368.006 849.43,368.57C847.867,369.174 846.404,370.01 845.09,371.05C843.699,372.146 842.458,373.42 841.4,374.84C840.307,376.293 839.487,377.933 838.98,379.68L838.98,413.3L824.24,413.3L824.24,355.66L837.55,355.66L837.55,366.33C839.727,362.63 842.939,359.647 846.79,357.75C851.026,355.651 855.703,354.595 860.43,354.67C863.488,354.55 866.524,355.24 869.23,356.67C871.41,357.905 873.23,359.687 874.51,361.84C875.8,364.086 876.677,366.545 877.1,369.1C877.572,371.825 877.81,374.585 877.81,377.35L877.81,413.3Z" style="fill:rgb(69,73,86);fill-rule:nonzero;"/>
        </g>
    </g>
</svg>
